<svg width="17" height="17" viewBox="0 0 17 17" fill="none" xmlns="http://www.w3.org/2000/svg">
<path d="M5.625 1.78125L6.875 4.78125C7.09375 5.28125 6.96875 5.875 6.53125 6.21875L5 7.5C6.03125 9.6875 7.8125 11.4688 10 12.5L11.2812 10.9688C11.625 10.5312 12.2188 10.4062 12.7188 10.625L15.7188 11.875C16.3125 12.0938 16.5938 12.75 16.4375 13.3438L15.6875 16.0938C15.5312 16.625 15.0625 17 14.5 17C6.75 17 0.5 10.75 0.5 3C0.5 2.4375 0.875 1.96875 1.40625 1.8125L4.15625 1.0625C4.75 0.90625 5.40625 1.1875 5.625 1.78125Z" fill="white"/>
</svg>
