<svg width="17" height="17" viewBox="0 0 17 17" fill="none" xmlns="http://www.w3.org/2000/svg">
<path d="M9.21875 15.625C8.84375 16.0938 8.125 16.0938 7.75 15.625C6.15625 13.5938 2.5 8.75 2.5 6C2.5 2.6875 5.1875 0 8.5 0C11.8125 0 14.5 2.6875 14.5 6C14.5 8.75 10.8438 13.5938 9.21875 15.625ZM8.5 4C7.78125 4 7.125 4.40625 6.75 5C6.40625 5.625 6.40625 6.40625 6.75 7C7.125 7.625 7.78125 8 8.5 8C9.1875 8 9.84375 7.625 10.2188 7C10.5625 6.40625 10.5625 5.625 10.2188 5C9.84375 4.40625 9.1875 4 8.5 4Z" fill="white"/>
</svg>
