<svg width="12" height="13" viewBox="0 0 12 13" fill="none" xmlns="http://www.w3.org/2000/svg">
<path d="M11.9133 3.26666C11.9133 4.63583 10.8025 5.74666 9.43333 5.74666C8.68416 5.74666 8.0125 5.43666 7.5475 4.89416L5.2225 6.05666C5.27416 6.23749 5.3 6.41833 5.3 6.57333C5.3 6.75416 5.27416 6.93499 5.2225 7.11583L7.5475 8.25249C8.0125 7.73583 8.68416 7.39999 9.43333 7.39999C10.8025 7.39999 11.9133 8.51083 11.9133 9.87999C11.9133 11.2492 10.8025 12.36 9.43333 12.36C8.06416 12.36 6.95333 11.2492 6.95333 9.87999C6.95333 9.72499 6.95333 9.54416 7.005 9.36333L4.68 8.20083C4.215 8.74333 3.54333 9.05333 2.82 9.05333C1.45083 9.05333 0.339996 7.94249 0.339996 6.57333C0.339996 5.20416 1.45083 4.09333 2.82 4.09333C3.54333 4.09333 4.215 4.42916 4.68 4.94583L7.005 3.80916C6.95333 3.62833 6.95333 3.44749 6.95333 3.26666C6.95333 1.89749 8.06416 0.786659 9.43333 0.786659C10.8025 0.786659 11.9133 1.89749 11.9133 3.26666ZM2.82 7.81333C3.25916 7.81333 3.64666 7.58083 3.87916 7.19333C4.11166 6.83166 4.11166 6.34083 3.87916 5.95333C3.64666 5.59166 3.25916 5.33333 2.82 5.33333C2.355 5.33333 1.9675 5.59166 1.735 5.95333C1.5025 6.34083 1.5025 6.83166 1.735 7.19333C1.9675 7.58083 2.355 7.81333 2.82 7.81333ZM10.6733 3.26666C10.6733 2.82749 10.415 2.43999 10.0533 2.20749C9.66583 1.97499 9.175 1.97499 8.81333 2.20749C8.42583 2.43999 8.19333 2.82749 8.19333 3.26666C8.19333 3.73166 8.42583 4.11916 8.81333 4.35166C9.175 4.58416 9.66583 4.58416 10.0533 4.35166C10.415 4.11916 10.6733 3.73166 10.6733 3.26666ZM9.43333 11.12C9.8725 11.12 10.26 10.8875 10.4925 10.5C10.725 10.1383 10.725 9.64749 10.4925 9.25999C10.26 8.89833 9.8725 8.63999 9.43333 8.63999C8.96833 8.63999 8.58083 8.89833 8.34833 9.25999C8.11583 9.64749 8.11583 10.1383 8.34833 10.5C8.58083 10.8875 8.96833 11.12 9.43333 11.12Z" fill="#FFB400"/>
</svg>
