<svg width="27" height="31" viewBox="0 0 27 31" fill="none" xmlns="http://www.w3.org/2000/svg">
<path d="M26.5 11.9844C24.0391 12.0391 21.7422 11.2734 19.7734 9.85156V19.6406C19.7734 26.4766 12.3359 30.7422 6.42969 27.3516C0.523438 23.9062 0.523438 15.375 6.42969 11.9297C8.125 10.9453 10.1484 10.5625 12.1172 10.8359V15.7578C9.10938 14.7734 6.21094 17.4531 6.86719 20.5156C7.57812 23.5781 11.2969 24.7812 13.6484 22.6484C14.4688 21.8828 14.9609 20.7891 14.9609 19.6406V0.5H19.7734C19.7734 0.9375 19.7734 1.32031 19.8828 1.75781C20.2109 3.5625 21.25 5.14844 22.8359 6.13281C23.875 6.84375 25.1875 7.22656 26.5 7.22656V11.9844Z" fill="#BB6002"/>
</svg>
