<svg width="31" height="21" viewBox="0 0 31 21" fill="none" xmlns="http://www.w3.org/2000/svg">
<path d="M29.5234 3.33594C30.1797 5.63281 30.1797 10.5547 30.1797 10.5547C30.1797 10.5547 30.1797 15.4219 29.5234 17.7734C29.1953 19.0859 28.1562 20.0703 26.8984 20.3984C24.5469 21 15.25 21 15.25 21C15.25 21 5.89844 21 3.54688 20.3984C2.28906 20.0703 1.25 19.0859 0.921875 17.7734C0.265625 15.4219 0.265625 10.5547 0.265625 10.5547C0.265625 10.5547 0.265625 5.63281 0.921875 3.33594C1.25 2.02344 2.28906 0.984375 3.54688 0.65625C5.89844 0 15.25 0 15.25 0C15.25 0 24.5469 0 26.8984 0.65625C28.1562 0.984375 29.1953 2.02344 29.5234 3.33594ZM12.1875 14.9844L19.9531 10.5547L12.1875 6.125V14.9844Z" fill="#BB6002"/>
</svg>
